<svg width="20" height="20" viewBox="0 0 20 20" fill="none" xmlns="http://www.w3.org/2000/svg">
<rect width="20" height="20" rx="4" fill="#091424"/>
<mask id="mask0_381_261" style="mask-type:alpha" maskUnits="userSpaceOnUse" x="4" y="4" width="12" height="12">
<rect x="4" y="4" width="12" height="12" fill="#D9D9D9"/>
</mask>
<g mask="url(#mask0_381_261)">
<path d="M13.5 11.5C13.5 11.2334 13.4208 10.9667 13.2625 10.7C13.1042 10.4334 12.875 10.2417 12.575 10.125L8.675 8.57504L8.5 8.52504C8.44167 8.50837 8.375 8.50004 8.3 8.50004H7.5V7.76254C7.5 7.59587 7.5375 7.4417 7.6125 7.30004C7.6875 7.15837 7.79167 7.0417 7.925 6.95004L10.425 5.16254C10.5917 5.03754 10.7833 4.97504 11 4.97504C11.2167 4.97504 11.4083 5.03754 11.575 5.16254L14.075 6.95004C14.2083 7.0417 14.3125 7.15837 14.3875 7.30004C14.4625 7.4417 14.5 7.59587 14.5 7.76254V11.5H13.5ZM11.5 8.00004C11.5667 8.00004 11.625 7.97504 11.675 7.92504C11.725 7.87504 11.75 7.8167 11.75 7.75004C11.75 7.68337 11.725 7.62504 11.675 7.57504C11.625 7.52504 11.5667 7.50004 11.5 7.50004C11.4333 7.50004 11.375 7.52504 11.325 7.57504C11.275 7.62504 11.25 7.68337 11.25 7.75004C11.25 7.8167 11.275 7.87504 11.325 7.92504C11.375 7.97504 11.4333 8.00004 11.5 8.00004ZM10.5 8.00004C10.5667 8.00004 10.625 7.97504 10.675 7.92504C10.725 7.87504 10.75 7.8167 10.75 7.75004C10.75 7.68337 10.725 7.62504 10.675 7.57504C10.625 7.52504 10.5667 7.50004 10.5 7.50004C10.4333 7.50004 10.375 7.52504 10.325 7.57504C10.275 7.62504 10.25 7.68337 10.25 7.75004C10.25 7.8167 10.275 7.87504 10.325 7.92504C10.375 7.97504 10.4333 8.00004 10.5 8.00004ZM11.5 9.00004C11.5667 9.00004 11.625 8.97504 11.675 8.92504C11.725 8.87504 11.75 8.8167 11.75 8.75004C11.75 8.68337 11.725 8.62504 11.675 8.57504C11.625 8.52504 11.5667 8.50004 11.5 8.50004C11.4333 8.50004 11.375 8.52504 11.325 8.57504C11.275 8.62504 11.25 8.68337 11.25 8.75004C11.25 8.8167 11.275 8.87504 11.325 8.92504C11.375 8.97504 11.4333 9.00004 11.5 9.00004ZM10.5 9.00004C10.5667 9.00004 10.625 8.97504 10.675 8.92504C10.725 8.87504 10.75 8.8167 10.75 8.75004C10.75 8.68337 10.725 8.62504 10.675 8.57504C10.625 8.52504 10.5667 8.50004 10.5 8.50004C10.4333 8.50004 10.375 8.52504 10.325 8.57504C10.275 8.62504 10.25 8.68337 10.25 8.75004C10.25 8.8167 10.275 8.87504 10.325 8.92504C10.375 8.97504 10.4333 9.00004 10.5 9.00004ZM4.5 14V10.5C4.5 10.225 4.59792 9.98962 4.79375 9.79379C4.98958 9.59795 5.225 9.50004 5.5 9.50004C5.775 9.50004 6.01042 9.59795 6.20625 9.79379C6.40208 9.98962 6.5 10.225 6.5 10.5V14C6.5 14.275 6.40208 14.5105 6.20625 14.7063C6.01042 14.9021 5.775 15 5.5 15C5.225 15 4.98958 14.9021 4.79375 14.7063C4.59792 14.5105 4.5 14.275 4.5 14ZM10.6875 14.9125L7.5 14.0125V9.50004H8.3C8.35833 9.50004 8.41667 9.50629 8.475 9.51879C8.53333 9.53129 8.59167 9.54587 8.65 9.56254L12.1125 10.85C12.2292 10.8917 12.3229 10.9667 12.3938 11.075C12.4646 11.1834 12.5 11.2959 12.5 11.4125C12.5 11.5875 12.4396 11.7292 12.3187 11.8375C12.1979 11.9459 12.0583 12 11.9 12H10.5875C10.5458 12 10.5146 11.998 10.4938 11.9938C10.4729 11.9896 10.4458 11.9792 10.4125 11.9625L9.85 11.75C9.78333 11.725 9.71667 11.7292 9.65 11.7625C9.58333 11.7959 9.54167 11.8417 9.525 11.9C9.50833 11.9667 9.5125 12.0292 9.5375 12.0875C9.5625 12.1459 9.60833 12.1875 9.675 12.2125L10.4125 12.475C10.4292 12.4834 10.4542 12.4896 10.4875 12.4938C10.5208 12.498 10.55 12.5 10.575 12.5H14C14.2667 12.5 14.5 12.5959 14.7 12.7875C14.9 12.9792 15 13.2167 15 13.5L11.3125 14.8875C11.2292 14.9209 11.1271 14.9396 11.0062 14.9438C10.8854 14.948 10.7792 14.9375 10.6875 14.9125Z" fill="white"/>
</g>
</svg>
