<svg width="20" height="20" viewBox="0 0 20 20" fill="none" xmlns="http://www.w3.org/2000/svg">
<rect width="20" height="20" rx="4" fill="#091424"/>
<mask id="mask0_381_273" style="mask-type:alpha" maskUnits="userSpaceOnUse" x="4" y="4" width="12" height="12">
<rect x="4" y="4" width="12" height="12" fill="#D9D9D9"/>
</mask>
<g mask="url(#mask0_381_273)">
<path d="M7 15C6.725 15 6.48958 14.9021 6.29375 14.7063C6.09792 14.5104 6 14.275 6 14V9C6 8.725 6.09792 8.48958 6.29375 8.29375C6.48958 8.09792 6.725 8 7 8H11.5V7C11.5 6.58333 11.3542 6.22917 11.0625 5.9375C10.7708 5.64583 10.4167 5.5 10 5.5C9.65 5.5 9.34375 5.60625 9.08125 5.81875C8.81875 6.03125 8.64167 6.29583 8.55 6.6125C8.51667 6.72917 8.44792 6.82292 8.34375 6.89375C8.23958 6.96458 8.125 7 8 7C7.85833 7 7.73958 6.95417 7.64375 6.8625C7.54792 6.77083 7.5125 6.6625 7.5375 6.5375C7.62917 5.97083 7.90625 5.48958 8.36875 5.09375C8.83125 4.69792 9.375 4.5 10 4.5C10.6917 4.5 11.2813 4.74375 11.7688 5.23125C12.2563 5.71875 12.5 6.30833 12.5 7V8H13C13.275 8 13.5104 8.09792 13.7063 8.29375C13.9021 8.48958 14 8.725 14 9V14C14 14.275 13.9021 14.5104 13.7063 14.7063C13.5104 14.9021 13.275 15 13 15H7ZM10 12.5C10.275 12.5 10.5104 12.4021 10.7063 12.2063C10.9021 12.0104 11 11.775 11 11.5C11 11.225 10.9021 10.9896 10.7063 10.7938C10.5104 10.5979 10.275 10.5 10 10.5C9.725 10.5 9.48958 10.5979 9.29375 10.7938C9.09792 10.9896 9 11.225 9 11.5C9 11.775 9.09792 12.0104 9.29375 12.2063C9.48958 12.4021 9.725 12.5 10 12.5Z" fill="white"/>
</g>
</svg>
