<svg width="20" height="20" viewBox="0 0 20 20" fill="none" xmlns="http://www.w3.org/2000/svg">
<rect width="20" height="20" rx="4" fill="#091424"/>
<mask id="mask0_381_255" style="mask-type:alpha" maskUnits="userSpaceOnUse" x="4" y="4" width="12" height="12">
<rect x="4" y="4" width="12" height="12" fill="#D9D9D9"/>
</mask>
<g mask="url(#mask0_381_255)">
<path d="M6 13.5C5.725 13.5 5.48958 13.4021 5.29375 13.2063C5.09792 13.0104 5 12.775 5 12.5V9.4125C5 9.27917 5.025 9.15208 5.075 9.03125C5.125 8.91042 5.19583 8.80417 5.2875 8.7125L6.7125 7.2875C6.80417 7.19583 6.91042 7.125 7.03125 7.075C7.15208 7.025 7.27917 7 7.4125 7H7.5V6.5C7.5 6.35833 7.54792 6.23958 7.64375 6.14375C7.73958 6.04792 7.85833 6 8 6C8.14167 6 8.26042 6.04792 8.35625 6.14375C8.45208 6.23958 8.5 6.35833 8.5 6.5V7H12.5875C12.7208 7 12.8479 7.025 12.9688 7.075C13.0896 7.125 13.1958 7.19583 13.2875 7.2875L14.7125 8.7125C14.8042 8.80417 14.875 8.91042 14.925 9.03125C14.975 9.15208 15 9.27917 15 9.4125V12.5C15 12.775 14.9021 13.0104 14.7063 13.2063C14.5104 13.4021 14.275 13.5 14 13.5H6ZM12 12.5H14V9.4125L13 8.4125L12 9.4125V12.5ZM6 12.5H11V10H6V12.5Z" fill="white"/>
</g>
</svg>
