<svg width="20" height="20" viewBox="0 0 20 20" fill="none" xmlns="http://www.w3.org/2000/svg">
<rect width="20" height="20" rx="4" fill="#091424"/>
<mask id="mask0_381_243" style="mask-type:alpha" maskUnits="userSpaceOnUse" x="4" y="4" width="12" height="12">
<rect x="4" y="4" width="12" height="12" fill="#D9D9D9"/>
</mask>
<g mask="url(#mask0_381_243)">
<path d="M9.55 11.5H10.45C10.525 11.5 10.5896 11.4688 10.6438 11.4063C10.6979 11.3438 10.7167 11.275 10.7 11.2L10.4625 9.88751C10.6292 9.80418 10.7604 9.68335 10.8563 9.52501C10.9521 9.36668 11 9.19168 11 9.00001C11 8.72501 10.9021 8.4896 10.7063 8.29376C10.5104 8.09793 10.275 8.00001 10 8.00001C9.725 8.00001 9.48958 8.09793 9.29375 8.29376C9.09792 8.4896 9 8.72501 9 9.00001C9 9.19168 9.04792 9.36668 9.14375 9.52501C9.23958 9.68335 9.37083 9.80418 9.5375 9.88751L9.3 11.2C9.28333 11.275 9.30208 11.3438 9.35625 11.4063C9.41042 11.4688 9.475 11.5 9.55 11.5ZM10 14.95C9.94167 14.95 9.8875 14.9458 9.8375 14.9375C9.7875 14.9292 9.7375 14.9167 9.6875 14.9C8.5625 14.525 7.66667 13.8313 7 12.8188C6.33333 11.8063 6 10.7167 6 9.55001V7.18751C6 6.97918 6.06042 6.79168 6.18125 6.62501C6.30208 6.45835 6.45833 6.33751 6.65 6.26251L9.65 5.13751C9.76667 5.09585 9.88333 5.07501 10 5.07501C10.1167 5.07501 10.2333 5.09585 10.35 5.13751L13.35 6.26251C13.5417 6.33751 13.6979 6.45835 13.8187 6.62501C13.9396 6.79168 14 6.97918 14 7.18751V9.55001C14 10.7167 13.6667 11.8063 13 12.8188C12.3333 13.8313 11.4375 14.525 10.3125 14.9C10.2625 14.9167 10.2125 14.9292 10.1625 14.9375C10.1125 14.9458 10.0583 14.95 10 14.95Z" fill="white"/>
</g>
</svg>
