<svg width="20" height="20" viewBox="0 0 20 20" fill="none" xmlns="http://www.w3.org/2000/svg">
<rect width="20" height="20" rx="4" fill="#091424"/>
<mask id="mask0_381_237" style="mask-type:alpha" maskUnits="userSpaceOnUse" x="2" y="2" width="16" height="16">
<rect x="2" y="2" width="16" height="16" fill="#D9D9D9"/>
</mask>
<g mask="url(#mask0_381_237)">
<path d="M7 12.5C6.85833 12.5 6.73958 12.4521 6.64375 12.3563C6.54792 12.2604 6.5 12.1417 6.5 12V9.4875C6.5 9.34583 6.54792 9.22917 6.64375 9.1375C6.73958 9.04583 6.85833 9 7 9C7.14167 9 7.26042 9.04792 7.35625 9.14375C7.45208 9.23958 7.5 9.35833 7.5 9.5V12.0125C7.5 12.1542 7.45208 12.2708 7.35625 12.3625C7.26042 12.4542 7.14167 12.5 7 12.5ZM10 12.5C9.85833 12.5 9.73958 12.4521 9.64375 12.3563C9.54792 12.2604 9.5 12.1417 9.5 12V9.4875C9.5 9.34583 9.54792 9.22917 9.64375 9.1375C9.73958 9.04583 9.85833 9 10 9C10.1417 9 10.2604 9.04792 10.3563 9.14375C10.4521 9.23958 10.5 9.35833 10.5 9.5V12.0125C10.5 12.1542 10.4521 12.2708 10.3563 12.3625C10.2604 12.4542 10.1417 12.5 10 12.5ZM5.4875 14.5C5.34583 14.5 5.22917 14.4521 5.1375 14.3562C5.04583 14.2604 5 14.1417 5 14C5 13.8583 5.04792 13.7396 5.14375 13.6438C5.23958 13.5479 5.35833 13.5 5.5 13.5H14.5125C14.6542 13.5 14.7708 13.5479 14.8625 13.6438C14.9542 13.7396 15 13.8583 15 14C15 14.1417 14.9521 14.2604 14.8562 14.3562C14.7604 14.4521 14.6417 14.5 14.5 14.5H5.4875ZM13 12.5C12.8583 12.5 12.7396 12.4521 12.6438 12.3563C12.5479 12.2604 12.5 12.1417 12.5 12V9.4875C12.5 9.34583 12.5479 9.22917 12.6438 9.1375C12.7396 9.04583 12.8583 9 13 9C13.1417 9 13.2604 9.04792 13.3562 9.14375C13.4521 9.23958 13.5 9.35833 13.5 9.5V12.0125C13.5 12.1542 13.4521 12.2708 13.3562 12.3625C13.2604 12.4542 13.1417 12.5 13 12.5ZM10.45 4.725L14.6625 6.825C14.7708 6.88333 14.8542 6.96458 14.9125 7.06875C14.9708 7.17292 15 7.2875 15 7.4125C15 7.57917 14.9396 7.71875 14.8188 7.83125C14.6979 7.94375 14.5542 8 14.3875 8H5.625C5.45833 8 5.3125 7.94375 5.1875 7.83125C5.0625 7.71875 5 7.57917 5 7.4125C5 7.29583 5.02708 7.18333 5.08125 7.075C5.13542 6.96667 5.22083 6.8875 5.3375 6.8375L9.55 4.725C9.69167 4.65833 9.84167 4.625 10 4.625C10.1583 4.625 10.3083 4.65833 10.45 4.725Z" fill="white"/>
</g>
</svg>
