<svg width="20" height="20" viewBox="0 0 20 20" fill="none" xmlns="http://www.w3.org/2000/svg">
<rect width="20" height="20" rx="4" fill="#091424"/>
<mask id="mask0_381_249" style="mask-type:alpha" maskUnits="userSpaceOnUse" x="4" y="4" width="12" height="12">
<rect x="4" y="4" width="12" height="12" fill="#D9D9D9"/>
</mask>
<g mask="url(#mask0_381_249)">
<path d="M7.5 11.5C7.91667 11.5 8.27083 11.3542 8.5625 11.0625C8.85417 10.7708 9 10.4167 9 10C9 9.58333 8.85417 9.22917 8.5625 8.9375C8.27083 8.64583 7.91667 8.5 7.5 8.5C7.08333 8.5 6.72917 8.64583 6.4375 8.9375C6.14583 9.22917 6 9.58333 6 10C6 10.4167 6.14583 10.7708 6.4375 11.0625C6.72917 11.3542 7.08333 11.5 7.5 11.5ZM7.5 13C6.66667 13 5.95833 12.7083 5.375 12.125C4.79167 11.5417 4.5 10.8333 4.5 10C4.5 9.16667 4.79167 8.45833 5.375 7.875C5.95833 7.29167 6.66667 7 7.5 7C8.175 7 8.76458 7.19167 9.26875 7.575C9.77292 7.95833 10.125 8.43333 10.325 9H14.3C14.3667 9 14.4313 9.0125 14.4938 9.0375C14.5563 9.0625 14.6083 9.09583 14.65 9.1375L15.1375 9.625C15.1875 9.675 15.225 9.73125 15.25 9.79375C15.275 9.85625 15.2875 9.92083 15.2875 9.9875C15.2875 10.0542 15.2771 10.1167 15.2563 10.175C15.2354 10.2333 15.2 10.2875 15.15 10.3375L13.85 11.6375C13.8 11.6875 13.7458 11.725 13.6875 11.75C13.6292 11.775 13.5667 11.7875 13.5 11.7875C13.4333 11.7875 13.3708 11.7771 13.3125 11.7562C13.2542 11.7354 13.2 11.7 13.15 11.65L12.5 11L11.85 11.65C11.8 11.7 11.7458 11.7354 11.6875 11.7562C11.6292 11.7771 11.5667 11.7875 11.5 11.7875C11.4333 11.7875 11.3708 11.7771 11.3125 11.7562C11.2542 11.7354 11.2 11.7 11.15 11.65L10.5 11H10.325C10.1167 11.6 9.75417 12.0833 9.2375 12.45C8.72083 12.8167 8.14167 13 7.5 13Z" fill="white"/>
</g>
</svg>
