<svg width="20" height="20" viewBox="0 0 20 20" fill="none" xmlns="http://www.w3.org/2000/svg">
<rect width="20" height="20" rx="4" fill="#091424"/>
<mask id="mask0_381_267" style="mask-type:alpha" maskUnits="userSpaceOnUse" x="4" y="4" width="12" height="12">
<rect x="4" y="4" width="12" height="12" fill="#D9D9D9"/>
</mask>
<g mask="url(#mask0_381_267)">
<path d="M10 14.5C9.38333 14.5 8.80208 14.3813 8.25625 14.1438C7.71042 13.9063 7.23333 13.5833 6.825 13.175C6.41667 12.7667 6.09375 12.2896 5.85625 11.7438C5.61875 11.1979 5.5 10.6167 5.5 10C5.5 9.35 5.625 8.74167 5.875 8.175C6.125 7.60833 6.475 7.12083 6.925 6.7125C7.03333 6.62083 7.15417 6.57708 7.2875 6.58125C7.42083 6.58542 7.53333 6.63333 7.625 6.725L10.35 9.45C10.4417 9.54167 10.4875 9.65833 10.4875 9.8C10.4875 9.94167 10.4417 10.0583 10.35 10.15C10.2583 10.2417 10.1417 10.2875 10 10.2875C9.85833 10.2875 9.74167 10.2417 9.65 10.15L7.3 7.8C7.05 8.1 6.85417 8.43542 6.7125 8.80625C6.57083 9.17708 6.5 9.575 6.5 10C6.5 10.9667 6.84167 11.7917 7.525 12.475C8.20833 13.1583 9.03333 13.5 10 13.5C10.9667 13.5 11.7917 13.1583 12.475 12.475C13.1583 11.7917 13.5 10.9667 13.5 10C13.5 9.10833 13.2146 8.33958 12.6438 7.69375C12.0729 7.04792 11.3583 6.66667 10.5 6.55V7C10.5 7.14167 10.4521 7.26042 10.3563 7.35625C10.2604 7.45208 10.1417 7.5 10 7.5C9.85833 7.5 9.73958 7.45208 9.64375 7.35625C9.54792 7.26042 9.5 7.14167 9.5 7V6C9.5 5.85833 9.54792 5.73958 9.64375 5.64375C9.73958 5.54792 9.85833 5.5 10 5.5C10.6167 5.5 11.1979 5.61875 11.7438 5.85625C12.2896 6.09375 12.7667 6.41667 13.175 6.825C13.5833 7.23333 13.9063 7.71042 14.1438 8.25625C14.3813 8.80208 14.5 9.38333 14.5 10C14.5 10.6167 14.3813 11.1979 14.1438 11.7438C13.9063 12.2896 13.5833 12.7667 13.175 13.175C12.7667 13.5833 12.2896 13.9063 11.7438 14.1438C11.1979 14.3813 10.6167 14.5 10 14.5ZM10 13C9.85833 13 9.73958 12.9521 9.64375 12.8563C9.54792 12.7604 9.5 12.6417 9.5 12.5C9.5 12.3583 9.54792 12.2396 9.64375 12.1438C9.73958 12.0479 9.85833 12 10 12C10.1417 12 10.2604 12.0479 10.3563 12.1438C10.4521 12.2396 10.5 12.3583 10.5 12.5C10.5 12.6417 10.4521 12.7604 10.3563 12.8563C10.2604 12.9521 10.1417 13 10 13ZM12.5 10.5C12.3583 10.5 12.2396 10.4521 12.1438 10.3563C12.0479 10.2604 12 10.1417 12 10C12 9.85833 12.0479 9.73958 12.1438 9.64375C12.2396 9.54792 12.3583 9.5 12.5 9.5C12.6417 9.5 12.7604 9.54792 12.8563 9.64375C12.9521 9.73958 13 9.85833 13 10C13 10.1417 12.9521 10.2604 12.8563 10.3563C12.7604 10.4521 12.6417 10.5 12.5 10.5ZM7.5 10.5C7.35833 10.5 7.23958 10.4521 7.14375 10.3563C7.04792 10.2604 7 10.1417 7 10C7 9.85833 7.04792 9.73958 7.14375 9.64375C7.23958 9.54792 7.35833 9.5 7.5 9.5C7.64167 9.5 7.76042 9.54792 7.85625 9.64375C7.95208 9.73958 8 9.85833 8 10C8 10.1417 7.95208 10.2604 7.85625 10.3563C7.76042 10.4521 7.64167 10.5 7.5 10.5Z" fill="white"/>
</g>
</svg>
